<svg xmlns="http://www.w3.org/2000/svg" width="283.598" height="268.822" viewBox="0 0 283.598 268.822">
  <g id="Enter_OTP-bro" data-name="Enter OTP-bro" transform="translate(-13.529 -22.191)">
    <g id="freepik--background-simple--inject-2" transform="translate(13.529 22.191)">
      <path id="Path_4969" data-name="Path 4969" d="M288.733,173.806c-8.025,24.325-25.319,50.995-50.775,59.674-38.454,13.123-41.9,44.659-111.68,44.445a140.933,140.933,0,0,1-30.3-3.254,117.379,117.379,0,0,1-14.349-4.164C40.28,255.593,17.644,220.125,14.4,182.224c-4.254-49.852,29.668-75,51.756-89.83S113.47,22.523,182.086,22.2a136.07,136.07,0,0,1,31.143,3.325c23.3,5.354,47.271,18.246,61.673,37.895,1.077,1.475,2.112,2.974,3.111,4.533C297.46,98.189,299.679,140.634,288.733,173.806Z" transform="translate(-14.037 -22.191)" fill="#6259a8"/>
      <path id="Path_4970" data-name="Path 4970" d="M288.733,173.806c-8.025,24.325-25.319,50.995-50.775,59.674-38.454,13.123-41.9,44.659-111.68,44.445a140.931,140.931,0,0,1-30.3-3.254,117.379,117.379,0,0,1-14.349-4.164C40.28,255.593,17.644,220.125,14.4,182.224c-4.254-49.852,29.668-75,51.756-89.83S113.47,22.523,182.086,22.2a136.07,136.07,0,0,1,31.143,3.325c23.3,5.354,47.271,18.246,61.673,37.895,1.077,1.475,2.112,2.974,3.111,4.533C297.46,98.189,299.679,140.634,288.733,173.806Z" transform="translate(-14.037 -22.191)" fill="#fff" opacity="0.7"/>
    </g>
    <g id="freepik--Plant--inject-2" transform="translate(32.784 138.168)">
      <path id="Path_4991" data-name="Path 4991" d="M65.509,278.825h0a.046.046,0,1,0-.071-.048A74.481,74.481,0,0,0,61.505,291.1a115.645,115.645,0,0,0-2.2,12.778l-.3,3.23c-.048.541-.107,1.077-.149,1.618l-.083,1.618c-.048,1.083-.113,2.159-.149,3.242l.03,3.242.036,1.624c.03.541.065,1.083.1,1.618.083,1.083.149,2.16.25,3.236.2,2.148.529,4.289.863,6.419a.048.048,0,0,0,.054.048.059.059,0,0,0,.059-.054h0c0-1.083-.054-2.159-.077-3.23s-.125-2.148-.107-3.224,0-2.148-.036-3.218l-.03-1.612v-4.825l.089-3.212.03-1.606c0-.535.059-1.071.089-1.606l.2-3.212a115.263,115.263,0,0,1,1.82-12.743A74.63,74.63,0,0,1,65.509,278.825Z" transform="translate(-31.352 -242.098)" fill="#263238"/>
      <path id="Path_4992" data-name="Path 4992" d="M68,307.1a.066.066,0,0,0-.036-.071.054.054,0,0,0-.071.036,74.469,74.469,0,0,0-3.641,16.556c-.286,2.814-.595,5.634-.642,8.459a70.942,70.942,0,0,0,.3,8.483.057.057,0,0,0,.113,0c.327-2.814.524-5.628.72-8.436s.226-5.622.41-8.43a74.5,74.5,0,0,1,.988-8.358A76.628,76.628,0,0,1,68,307.1Z" transform="translate(-33.364 -253.554)" fill="#263238"/>
      <path id="Path_4993" data-name="Path 4993" d="M78.709,317.078a.059.059,0,0,0-.083,0,28.382,28.382,0,0,0-6.252,5.414,24.629,24.629,0,0,0-2.439,3.391l-.5.946-.393.982a10.348,10.348,0,0,0-.345.993c-.1.333-.208.672-.3,1.005a40.293,40.293,0,0,0-1.285,8.221,46.96,46.96,0,0,0,.309,8.281.06.06,0,0,0,.048.054.065.065,0,0,0,.065-.054l.708-8.2a73.07,73.07,0,0,1,1.041-8.085c.071-.327.167-.654.25-.976a8.68,8.68,0,0,1,.286-.97l.357-.946.428-.892a23.518,23.518,0,0,1,2.237-3.391,27.96,27.96,0,0,1,5.848-5.7h0a.065.065,0,0,0,.024-.077Z" transform="translate(-34.766 -257.62)" fill="#263238"/>
      <path id="Path_4994" data-name="Path 4994" d="M75.488,334.79a9.107,9.107,0,0,0-2.832,3.409,19.81,19.81,0,0,0-1.588,4.164,11.112,11.112,0,0,0-.28,1.083l-.256,1.089a18.443,18.443,0,0,0-.274,2.213c0,.744-.036,1.487,0,2.225a18.444,18.444,0,0,0,.291,2.213.065.065,0,0,0,.048.048.053.053,0,0,0,.065-.048,19.926,19.926,0,0,0,.393-2.177c.113-.72.226-1.44.315-2.154s.2-1.428.256-2.148a15.225,15.225,0,0,1,.309-2.142,19.185,19.185,0,0,1,1.19-4.135,9.108,9.108,0,0,1,2.38-3.569h0a.048.048,0,0,0,0-.071h-.018Z" transform="translate(-36.061 -264.802)" fill="#263238"/>
      <path id="Path_4995" data-name="Path 4995" d="M53.27,326.549c-.309-3.635-.91-7.24-1.475-10.839s-1.19-7.192-1.856-10.78-1.392-7.139-2.165-10.708a.059.059,0,0,0-.113,0c.625,3.569,1.19,7.186,1.719,10.785s1.059,7.2,1.517,10.809.791,7.234,1.243,10.833L53.472,337.5a.054.054,0,0,0,.054.054.065.065,0,0,0,.059-.054c.042-.916.042-1.826.065-2.742s-.042-1.826-.054-2.737C53.561,330.19,53.407,328.375,53.27,326.549Z" transform="translate(-26.912 -248.352)" fill="#263238"/>
      <path id="Path_4996" data-name="Path 4996" d="M47.122,332.011c-.2-1.446-.458-2.879-.738-4.307l-.506-2.124c-.173-.708-.327-1.416-.535-2.118a59.845,59.845,0,0,0-2.784-8.275l-.446-1-.488-.982c-.3-.66-.678-1.285-1.035-1.922a15.951,15.951,0,0,0-2.624-3.486.055.055,0,1,0-.077.077h0a15.8,15.8,0,0,1,2.38,3.569c.321.642.654,1.279.922,1.951l.428.988L42,315.4a59.491,59.491,0,0,1,2.421,8.281c.333,1.4.553,2.826.827,4.236l.339,2.136c.125.708.274,1.41.375,2.124.226,1.422.488,2.844.738,4.265s.482,2.855.779,4.277a.059.059,0,0,0,.059.048.054.054,0,0,0,.054-.054q0-2.183-.1-4.361C47.467,334.9,47.27,333.457,47.122,332.011Z" transform="translate(-22.947 -253.861)" fill="#263238"/>
      <path id="Path_4997" data-name="Path 4997" d="M44.753,341.37c-.678-1.91-1.458-3.778-2.308-5.61a49.976,49.976,0,0,0-2.9-5.318.065.065,0,0,0-.077,0,.059.059,0,0,0,0,.077A50.381,50.381,0,0,1,41.945,336c.738,1.856,1.4,3.748,1.957,5.663s.982,3.873,1.487,5.8.97,3.867,1.565,5.812a.058.058,0,0,0,.113-.012,29.15,29.15,0,0,0-.565-6.056,38.28,38.28,0,0,0-1.749-5.842Z" transform="translate(-23.589 -263.035)" fill="#263238"/>
      <path id="Path_4998" data-name="Path 4998" d="M43.243,353.968a13.034,13.034,0,0,0-1.606-3.361,13.849,13.849,0,0,0-2.332-2.891,10.864,10.864,0,0,0-1.505-1.124,6.152,6.152,0,0,0-1.684-.761.059.059,0,0,0-.065.036.054.054,0,0,0,0,.071h0a8.275,8.275,0,0,1,2.79,2.165,13.088,13.088,0,0,1,1.945,2.945c.553,1.047.839,2.2,1.321,3.278.208.553.422,1.107.666,1.66a14.2,14.2,0,0,0,.732,1.678h0a.059.059,0,0,0,.048.03.065.065,0,0,0,.065-.054,13.883,13.883,0,0,0-.071-1.862A10.075,10.075,0,0,0,43.243,353.968Z" transform="translate(-22.204 -269.274)" fill="#263238"/>
      <path id="Path_4999" data-name="Path 4999" d="M40.955,276.743a10.345,10.345,0,0,1-7.335-7.793c-1.38-6.425,3.058-3.67-.916-13.766s-3.058-12.38-1.684-15.289,2.142-1.987,3.361,1.838,5.669,9.786,7.341,20.946S40.955,276.743,40.955,276.743Z" transform="translate(-19.696 -225.667)" fill="#6259a8"/>
      <path id="Path_5000" data-name="Path 5000" d="M65.505,257.368s-3.98-1.38-4.129-8.87,2.9-5.949,3.361-15.289,1.071-15.9,2.754-16.062,6.116,4.587,7.644,14.985-1.987,17.252-5.045,20.334S65.505,257.368,65.505,257.368Z" transform="translate(-32.467 -217.143)" fill="#6259a8"/>
      <path id="Path_5001" data-name="Path 5001" d="M33.677,302.618s-.922-5.5-2.754-8.1-5.812-4.9-8.412-9.941-5.5-7.49-5.354-.3,3.361,10.851,7.341,13.3S33.677,302.618,33.677,302.618Z" transform="translate(-14.553 -242.517)" fill="#6259a8"/>
      <path id="Path_5002" data-name="Path 5002" d="M30.224,321.536A55.126,55.126,0,0,0,21.205,309.3c-5.348-5.2-9.637-7.8-8.108-5.2s3.367,2.451,5.949,7.038,1.832,7.948,5.5,10.548S30.224,321.536,30.224,321.536Z" transform="translate(-12.784 -251.959)" fill="#6259a8"/>
      <path id="Path_5003" data-name="Path 5003" d="M31.088,343.655c-.155-.458-.309-3.825-5.5-6.544s-10.113-1.684-9.483-.309,3.825,3.671,7.032,5.045A31.889,31.889,0,0,0,31.088,343.655Z" transform="translate(-14.106 -265.054)" fill="#6259a8"/>
      <path id="Path_5004" data-name="Path 5004" d="M66.835,299.522s-2.261-2.9-1.071-9.019,3.974-4.587,7.038-7.8,2.445-3.671,5.5-7.032,5.806-5.2,7.032-3.825-.595,5.657-2.445,8.1-4.759,3.671-6.116,6.728-.767,7.954-4.283,10.244A16,16,0,0,1,66.835,299.522Z" transform="translate(-34.106 -239.118)" fill="#6259a8"/>
      <path id="Path_5005" data-name="Path 5005" d="M80.65,309.9s5.509-6.252,9.483-10.857,5.5-8.1,5.657-5.045,1.374,5.5-1.838,9.477S80.65,309.9,80.65,309.9Z" transform="translate(-40.276 -247.81)" fill="#6259a8"/>
      <path id="Path_5006" data-name="Path 5006" d="M75.77,329.165s-.155-2.445,8.561-8.1,12.386-6.728,11.47-4.432-4.759,4.587-8.87,8.715S75.77,329.165,75.77,329.165Z" transform="translate(-38.299 -256.988)" fill="#6259a8"/>
      <path id="Path_5007" data-name="Path 5007" d="M43.7,280.688a.3.3,0,0,1-.3-.244c0-.107-2.064-11.047-4.164-18.739s-3.5-12.493-3.516-12.534a.291.291,0,0,1,.2-.369.3.3,0,0,1,.369.2c0,.048,1.4,4.831,3.516,12.54s4.164,18.68,4.194,18.793a.3.3,0,0,1-.238.345Z" transform="translate(-22.07 -229.963)" fill="#263238"/>
      <path id="Path_5008" data-name="Path 5008" d="M67.52,261.337H67.43a.3.3,0,0,1-.19-.375c.036-.119,3.724-11.951,4.926-19.037a37.523,37.523,0,0,0-.553-14.6c-.077-.369-.149-.72-.208-1.041a.3.3,0,1,1,.595-.113c.065.321.131.666.208,1.035a38.283,38.283,0,0,1,.559,14.819c-1.19,7.139-4.914,19-4.95,19.114A.3.3,0,0,1,67.52,261.337Z" transform="translate(-34.838 -220.701)" fill="#263238"/>
      <path id="Path_5009" data-name="Path 5009" d="M34.977,305.643a.3.3,0,0,1-.262-.149,57.885,57.885,0,0,0-5.6-7.984c-.857-1.017-1.654-1.9-2.427-2.748-2.207-2.445-3.956-4.378-5.11-7.27a.291.291,0,0,1,.167-.387.3.3,0,0,1,.387.167c1.112,2.79,2.832,4.688,5,7.091.773.857,1.571,1.737,2.439,2.76a58.589,58.589,0,0,1,5.663,8.079.3.3,0,0,1-.113.4.315.315,0,0,1-.143.036Z" transform="translate(-16.335 -245.477)" fill="#263238"/>
      <path id="Path_5010" data-name="Path 5010" d="M67.6,301.881h-.048a.291.291,0,0,1-.244-.339c.048-.3,1.267-7.454,4.164-11.3,1.13-1.487,2.683-3.278,4.325-5.17a71.326,71.326,0,0,0,6.669-8.412.3.3,0,1,1,.506.3,71.3,71.3,0,0,1-6.728,8.5c-1.636,1.886-3.177,3.671-4.3,5.14-2.826,3.718-4.057,10.958-4.075,11.029A.291.291,0,0,1,67.6,301.881Z" transform="translate(-34.869 -241.18)" fill="#263238"/>
      <path id="Path_5011" data-name="Path 5011" d="M34.518,345.552a.334.334,0,0,1-.161-.048c-.048-.036-5.17-3.367-8.787-5.17a.3.3,0,0,1-.131-.4.3.3,0,0,1,.4-.137c3.641,1.826,8.793,5.17,8.846,5.205a.3.3,0,0,1,.083.41.286.286,0,0,1-.25.137Z" transform="translate(-17.899 -266.819)" fill="#263238"/>
      <path id="Path_5012" data-name="Path 5012" d="M64.975,390.257C64.63,380.983,54.32,374.79,54.32,374.79H38.52s-10.31,6.187-10.655,15.467,11.684,43.3,11.684,43.3H53.291S65.314,399.538,64.975,390.257Z" transform="translate(-18.89 -281.006)" fill="#263238"/>
      <path id="Path_5013" data-name="Path 5013" d="M53.088,433.641H39.346a.3.3,0,0,1-.28-.2c-.494-1.392-12.041-34.177-11.7-43.428.345-9.328,10.708-15.646,10.8-15.705a.286.286,0,0,1,.155-.042h15.8a.286.286,0,0,1,.155.042c.1.059,10.446,6.377,10.791,15.705h0c.345,9.233-11.208,42.018-11.7,43.428A.3.3,0,0,1,53.088,433.641Zm-13.528-.595H52.874c.988-2.8,11.9-34.236,11.6-42.987-.321-8.614-9.518-14.617-10.44-15.176H38.4c-.892.559-10.113,6.544-10.44,15.176-.321,8.751,10.613,40.185,11.6,42.987Z" transform="translate(-18.688 -280.796)" fill="#263238"/>
      <path id="Path_5014" data-name="Path 5014" d="M62.031,359.46H41.87l2.326,9.126H59.705Z" transform="translate(-24.567 -274.796)" fill="#263238"/>
      <path id="Path_5015" data-name="Path 5015" d="M59.5,368.681H43.993a.3.3,0,0,1-.291-.226l-2.326-9.12a.321.321,0,0,1,.054-.256.291.291,0,0,1,.238-.119H61.828a.3.3,0,0,1,.286.375l-2.326,9.12A.292.292,0,0,1,59.5,368.681Zm-15.277-.595H59.27l2.171-8.507H42.047Z" transform="translate(-24.363 -274.594)" fill="#263238"/>
    </g>
    <g id="freepik--Device--inject-2" transform="translate(92.123 29.621)">
      <path id="Path_5017" data-name="Path 5017" d="M230.192,51.537V255.956a10.161,10.161,0,0,1-10.161,10.161H131.7a10.161,10.161,0,0,1-10.161-10.161V51.531a10.155,10.155,0,0,1,10.155-10.155h37.913l.036.113c.952,3.4,3.117,5.61,5.533,5.61h1.368c2.415,0,4.587-2.213,5.533-5.616l.042-.113h37.913A10.161,10.161,0,0,1,230.192,51.537Z" transform="translate(-116.133 -37.39)" fill="#fff"/>
      <path id="Path_5018" data-name="Path 5018" d="M219.813,266.215h-88.33A10.47,10.47,0,0,1,121,255.757V51.332A10.464,10.464,0,0,1,131.452,40.88h38.139l.1.333c.91,3.278,2.974,5.4,5.247,5.4h1.392c2.278,0,4.337-2.118,5.247-5.4l.107-.333h38.133a10.47,10.47,0,0,1,10.458,10.458V255.757a10.47,10.47,0,0,1-10.458,10.458ZM131.476,41.475a9.869,9.869,0,0,0-9.881,9.857V255.757a9.875,9.875,0,0,0,9.863,9.863h88.354a9.875,9.875,0,0,0,9.863-9.863V51.338a9.875,9.875,0,0,0-9.863-9.863H182.132c-1,3.48-3.266,5.729-5.794,5.729h-1.38c-2.528,0-4.795-2.249-5.794-5.729Z" transform="translate(-115.961 -37.192)" fill="#263238"/>
      <path id="Path_5023" data-name="Path 5023" d="M200.965,119.062l-.268-.2-.268.2s-13.683,7.787-19.87,10.744c0,0,2.974,16.657,5.1,24.165s10.476,11.547,15.039,14.23c4.569-2.683,12.891-6.71,15.039-14.23s5.1-24.165,5.1-24.165C214.66,126.849,200.965,119.062,200.965,119.062Z" transform="translate(-140.089 -42.782)" fill="#ffc010"/>
      <path id="Path_5024" data-name="Path 5024" d="M205.372,160.954l-9.078-7.781A2.082,2.082,0,0,1,199,150.008l5.949,5.1,10.2-11.595a2.082,2.082,0,1,1,3.129,2.748Z" transform="translate(-146.168 -52.484)" fill="#fff"/>
      <g id="Group_88542" data-name="Group 88542" transform="translate(-8.755)">
        <rect id="Rectangle_834" data-name="Rectangle 834" width="12.35" height="12.35" transform="translate(29.459 134.718)" fill="#fff"/>
        <path id="Path_5026" data-name="Path 5026" d="M174.495,229.875H161.55V216.93h12.945Zm-12.35-.595H173.9V217.525H162.145Z" transform="translate(-132.388 -82.51)" fill="#263238"/>
        <rect id="Rectangle_835" data-name="Rectangle 835" width="12.35" height="12.35" transform="translate(46.11 134.718)" fill="#fff"/>
        <path id="Path_5027" data-name="Path 5027" d="M202.485,229.875H189.54V216.93h12.945Zm-12.35-.595H201.89V217.525H190.135Z" transform="translate(-143.727 -82.51)" fill="#263238"/>
        <rect id="Rectangle_836" data-name="Rectangle 836" width="12.35" height="12.35" transform="translate(62.756 134.718)" fill="#fff"/>
        <path id="Path_5028" data-name="Path 5028" d="M230.471,229.875H217.52V216.93h12.951Zm-12.356-.595h11.761V217.525H218.115Z" transform="translate(-155.062 -82.51)" fill="#263238"/>
        <rect id="Rectangle_837" data-name="Rectangle 837" width="12.35" height="12.35" transform="translate(79.407 134.718)" fill="#fff"/>
        <path id="Path_5029" data-name="Path 5029" d="M258.455,229.875H245.51V216.93h12.945Zm-12.35-.595H257.86V217.525H246.1Z" transform="translate(-166.401 -82.51)" fill="#263238"/>
        <rect id="Rectangle_838" data-name="Rectangle 838" width="12.35" height="12.35" transform="translate(96.058 134.718)" fill="#fff"/>
        <path id="Path_5030" data-name="Path 5030" d="M286.445,229.875H273.5V216.93h12.945Zm-12.35-.595H285.85V217.525H274.095Z" transform="translate(-177.739 -82.51)" fill="#263238"/>
      </g>
      <path id="Path_5031" data-name="Path 5031" d="M230.192,61.043V51.525a10.161,10.161,0,0,0-10.161-10.149H182.124l-.036.113c-.946,3.4-3.117,5.61-5.544,5.61h-1.368c-2.415,0-4.593-2.213-5.533-5.616l-.036-.113H131.695A10.155,10.155,0,0,0,121.54,51.525v9.518Z" transform="translate(-116.18 -37.39)" fill="#dbdbdb"/>
      <path id="Path_5032" data-name="Path 5032" d="M229.984,61.138H121.337a.3.3,0,0,1-.3-.3V51.322A10.464,10.464,0,0,1,131.492,40.87h37.913a.291.291,0,0,1,.286.22l.036.113c.91,3.278,2.975,5.4,5.247,5.4h1.368c2.278,0,4.337-2.118,5.247-5.4l.042-.125a.292.292,0,0,1,.28-.208h37.919a10.464,10.464,0,0,1,10.452,10.458v9.518A.3.3,0,0,1,229.984,61.138Zm-108.373-.595H229.686V51.334a9.869,9.869,0,0,0-9.857-9.863H182.148c-1,3.48-3.266,5.729-5.794,5.729h-1.38c-2.528,0-4.795-2.249-5.794-5.729H131.492a9.869,9.869,0,0,0-9.881,9.857Z" transform="translate(-115.977 -37.188)" fill="#263238"/>
      <path id="Path_5033" data-name="Path 5033" d="M233.639,97.852V77.436h-1.85V51.3a16.11,16.11,0,0,0-16.11-16.116H129.134A16.116,16.116,0,0,0,113,51.3V259a16.11,16.11,0,0,0,16.116,16.11h86.564A16.1,16.1,0,0,0,231.789,259V115.253h1.85V103.189h-1.85V97.835Zm-6.907,149.641a16.116,16.116,0,0,1-16.116,16.116H134.2a16.116,16.116,0,0,1-16.116-16.116V54.978A16.116,16.116,0,0,1,134.2,38.868h31.952l.036.113c.952,3.4,3.117,5.61,5.533,5.61h1.368c2.415,0,4.587-2.213,5.533-5.616l.042-.113H210.6a16.116,16.116,0,0,1,16.116,16.11Z" transform="translate(-112.72 -34.883)" fill="#6259a8"/>
      <path id="Path_5034" data-name="Path 5034" d="M215.489,275.209H128.943A16.431,16.431,0,0,1,112.53,258.8V51.093A16.437,16.437,0,0,1,128.943,34.68h86.546A16.431,16.431,0,0,1,231.9,51.093V76.936h1.553a.3.3,0,0,1,.3.3V97.65a.3.3,0,0,1-.3.3H231.9v4.759h1.553a.3.3,0,0,1,.3.3v12.065a.3.3,0,0,1-.3.3H231.9V258.8a16.425,16.425,0,0,1-16.407,16.407ZM128.943,35.275a15.836,15.836,0,0,0-15.818,15.818V258.8a15.83,15.83,0,0,0,15.818,15.812h86.546A15.83,15.83,0,0,0,231.3,258.8V115.051a.3.3,0,0,1,.3-.3h1.553v-11.47H231.6a.3.3,0,0,1-.3-.3V97.632a.3.3,0,0,1,.3-.3h1.553V77.53H231.6a.3.3,0,0,1-.3-.3V51.093a15.83,15.83,0,0,0-15.812-15.818Zm81.5,228.441H134.006a16.437,16.437,0,0,1-16.437-16.425V54.776a16.431,16.431,0,0,1,16.413-16.407h31.952a.286.286,0,0,1,.286.22l.036.113c.91,3.278,2.974,5.4,5.247,5.4h1.392c2.278,0,4.337-2.118,5.247-5.4l.042-.125a.292.292,0,0,1,.28-.208h31.952a16.431,16.431,0,0,1,16.413,16.407V247.291a16.437,16.437,0,0,1-16.4,16.413ZM134.006,38.963a15.83,15.83,0,0,0-15.842,15.812V247.291a15.836,15.836,0,0,0,15.818,15.818h76.444a15.836,15.836,0,0,0,15.818-15.818V54.776a15.83,15.83,0,0,0-15.818-15.812H178.7c-1,3.48-3.266,5.729-5.794,5.729h-1.38c-2.528,0-4.795-2.249-5.794-5.729Z" transform="translate(-112.53 -34.68)" fill="#263238"/>
      <path id="Path_5035" data-name="Path 5035" d="M215.673,38.91H131.709A15.545,15.545,0,0,0,116.17,54.431V258.868a15.539,15.539,0,0,0,15.539,15.539h83.964a15.539,15.539,0,0,0,15.539-15.539V54.431A15.545,15.545,0,0,0,215.673,38.91Zm12.344,210.647A15.545,15.545,0,0,1,212.472,265.1H134.909a15.545,15.545,0,0,1-15.545-15.539V55.912A15.533,15.533,0,0,1,134.9,40.379h32.529l.036.113c.952,3.4,3.117,5.61,5.533,5.61h1.368c2.415,0,4.587-2.213,5.533-5.616l.042-.113H212.46a15.539,15.539,0,0,1,15.557,15.545Z" transform="translate(-114.005 -36.394)" fill="#263238"/>
      <path id="Path_5036" data-name="Path 5036" d="M215.47,274.489H131.506a15.854,15.854,0,0,1-15.836-15.836V54.216A15.854,15.854,0,0,1,131.506,38.38H215.47a15.854,15.854,0,0,1,15.836,15.836V258.653a15.854,15.854,0,0,1-15.836,15.836ZM131.506,39a15.259,15.259,0,0,0-15.241,15.217V258.653a15.259,15.259,0,0,0,15.241,15.241H215.47a15.259,15.259,0,0,0,15.241-15.241V54.216A15.259,15.259,0,0,0,215.47,38.975Zm80.763,226.2H134.707a15.86,15.86,0,0,1-15.866-15.86V55.7a15.854,15.854,0,0,1,15.836-15.83h32.529a.286.286,0,0,1,.286.22l.036.113c.91,3.278,2.974,5.4,5.247,5.4h1.392c2.278,0,4.337-2.118,5.247-5.4l.042-.125a.291.291,0,0,1,.28-.208h32.523A15.86,15.86,0,0,1,228.112,55.7V249.343a15.86,15.86,0,0,1-15.842,15.86ZM134.7,40.462A15.253,15.253,0,0,0,119.436,55.7V249.343a15.265,15.265,0,0,0,15.247,15.241h77.587a15.265,15.265,0,0,0,15.247-15.241V55.7a15.259,15.259,0,0,0-15.247-15.241h-32.3c-1,3.48-3.266,5.729-5.794,5.729H172.8c-2.528,0-4.795-2.249-5.794-5.729Z" transform="translate(-113.802 -36.179)" fill="#263238"/>
      <path id="Path_5037" data-name="Path 5037" d="M212.782,41.645a1.511,1.511,0,1,0-.44,1.072,1.511,1.511,0,0,0,.44-1.072Z" transform="translate(-151.918 -36.892)" fill="#fff"/>
      <path id="Path_5038" data-name="Path 5038" d="M136.224,51.541c0,1.529-1.719,2.082-1.731,3.248v.071h1.672v.518H133.94v-.434c0-1.642,1.719-1.957,1.719-3.391,0-.518-.178-.8-.595-.8s-.595.3-.595.75v.446h-.529v-.41c0-.779.351-1.291,1.136-1.291S136.224,50.762,136.224,51.541Z" transform="translate(-121.203 -40.987)" fill="#263238"/>
      <path id="Path_5039" data-name="Path 5039" d="M140.882,51.533v.131a1.017,1.017,0,0,1-.595,1.047,1.011,1.011,0,0,1,.595,1.053v.393c0,.773-.363,1.279-1.148,1.279s-1.136-.506-1.136-1.279v-.351h.529v.387c0,.452.184.732.595.732s.595-.268.595-.785v-.393c0-.5-.214-.738-.642-.75h-.3v-.512h.333a.595.595,0,0,0,.595-.7v-.232c0-.524-.184-.791-.595-.791s-.595.286-.595.744v.256h-.529v-.232c0-.773.363-1.273,1.136-1.273A1.114,1.114,0,0,1,140.882,51.533Z" transform="translate(-123.083 -40.991)" fill="#263238"/>
      <path id="Path_5040" data-name="Path 5040" d="M143.917,53.05v.7h-.547v-.7Zm0,2.766v.7h-.547v-.7Z" transform="translate(-125.023 -42.122)" fill="#263238"/>
      <path id="Path_5041" data-name="Path 5041" d="M145.819,52.41a.809.809,0,0,1,.75-.422c.654,0,.946.482.946,1.19v.993c0,.773-.369,1.279-1.148,1.279s-1.136-.506-1.136-1.279v-.345h.529v.381c0,.452.19.732.595.732s.595-.28.595-.732v-.97c0-.458-.19-.732-.595-.732a.547.547,0,0,0-.595.541v.119h-.524l.137-2.826h2v.512h-1.493Z" transform="translate(-125.777 -41.024)" fill="#263238"/>
      <path id="Path_5042" data-name="Path 5042" d="M152.222,51.527v.1h-.529v-.131c0-.458-.184-.726-.595-.726s-.595.28-.595.821v1.136a.827.827,0,0,1,.821-.541c.654,0,.946.47.946,1.19v.773a1.193,1.193,0,1,1-2.38,0V51.563c0-.8.363-1.3,1.19-1.3S152.222,50.754,152.222,51.527Zm-1.749,1.9v.761c0,.452.19.732.595.732s.595-.28.595-.732v-.761c0-.458-.2-.732-.595-.732S150.473,52.973,150.473,53.431Z" transform="translate(-127.665 -40.991)" fill="#263238"/>
      <rect id="Rectangle_839" data-name="Rectangle 839" width="1.434" height="3.581" transform="translate(78.55 10.762)" fill="#263238"/>
      <rect id="Rectangle_840" data-name="Rectangle 840" width="1.434" height="4.301" transform="translate(80.46 10.042)" fill="#263238"/>
      <rect id="Rectangle_841" data-name="Rectangle 841" width="1.434" height="4.813" transform="translate(82.37 9.53)" fill="#263238"/>
      <rect id="Rectangle_842" data-name="Rectangle 842" width="1.434" height="5.699" transform="translate(84.285 8.644)" fill="#263238"/>
      <path id="Path_5043" data-name="Path 5043" d="M280.584,55.049H272V49.79h8.6Zm-8.12-.482h7.644v-4.3h-7.644Z" transform="translate(-177.132 -40.801)" fill="#263238"/>
      <rect id="Rectangle_843" data-name="Rectangle 843" width="4.539" height="3.26" transform="translate(96.046 9.988)" fill="#263238"/>
      <rect id="Rectangle_844" data-name="Rectangle 844" width="1.083" height="1.237" transform="translate(103.155 11)" fill="#263238"/>
      <path id="Path_5044" data-name="Path 5044" d="M264.181,55.924a.327.327,0,0,1-.167-.042,2.548,2.548,0,0,0-2.975-.036.321.321,0,0,1-.452,0,.327.327,0,0,1,.03-.452,3.121,3.121,0,0,1,3.706-.036.321.321,0,0,1,.113.44A.315.315,0,0,1,264.181,55.924Z" transform="translate(-172.477 -42.825)" fill="#263238"/>
      <path id="Path_5045" data-name="Path 5045" d="M264.394,53.981a.268.268,0,0,1-.161-.048,3.637,3.637,0,0,0-4.254-.036.321.321,0,0,1-.452,0,.333.333,0,0,1,.03-.458,4.254,4.254,0,0,1,5,0,.321.321,0,0,1-.167.595Z" transform="translate(-172.048 -41.958)" fill="#263238"/>
      <path id="Path_5046" data-name="Path 5046" d="M264.582,51.756a.315.315,0,0,1-.161-.048c-3.206-1.9-5.354-.113-5.425-.036a.321.321,0,0,1-.458,0,.327.327,0,0,1,.03-.452,5.331,5.331,0,0,1,6.181-.036.327.327,0,0,1,.113.44A.333.333,0,0,1,264.582,51.756Z" transform="translate(-171.647 -40.982)" fill="#263238"/>
      <path id="Path_5047" data-name="Path 5047" d="M263.948,57.059a.8.8,0,1,1-.233-.572A.809.809,0,0,1,263.948,57.059Z" transform="translate(-173.214 -43.418)" fill="#263238"/>
    </g>
    <g id="freepik--Arrow--inject-2" transform="translate(213.053 22.631)">
      <path id="Path_5080" data-name="Path 5080" d="M401.587,50.3a.3.3,0,0,1-.3-.3V47.023a.3.3,0,1,1,.595,0V50A.3.3,0,0,1,401.587,50.3Zm0-5.949a.3.3,0,0,1-.3-.3V41.074a.3.3,0,1,1,.595,0v2.974A.3.3,0,0,1,401.587,44.346Zm0-5.949a.3.3,0,0,1-.3-.3V35.125a.3.3,0,1,1,.595,0V38.1A.3.3,0,0,1,401.587,38.4Zm0-5.949a.3.3,0,0,1-.3-.3V29.176a.3.3,0,1,1,.595,0v2.974A.3.3,0,0,1,401.587,32.448Zm0-5.949a.3.3,0,0,1-.3-.3V23.227a.3.3,0,1,1,.595,0V26.2A.3.3,0,0,1,401.587,26.5Z" transform="translate(-350.438 -22.93)" fill="#263238"/>
      <path id="Path_5081" data-name="Path 5081" d="M355.655,196.187H352.96a.3.3,0,0,1-.3-.3.3.3,0,0,1,.3-.3h2.974a.3.3,0,1,1,0,.595Zm-5.669,0h-2.974a.3.3,0,0,1-.3-.3.3.3,0,0,1,.3-.3h2.974a.3.3,0,1,1-.018.595Zm-5.949,0h-2.974a.3.3,0,0,1-.3-.3.3.3,0,0,1,.3-.3h2.974a.3.3,0,1,1-.018.595Zm-5.949,0h-2.974a.3.3,0,0,1-.3-.3.3.3,0,0,1,.3-.3h2.974a.3.3,0,1,1-.018.595Zm-5.949,0h-2.975a.3.3,0,0,1-.3-.3.3.3,0,0,1,.3-.3h2.975a.3.3,0,1,1-.018.595Zm-5.949,0h-1.582a.3.3,0,0,1-.3-.3.3.3,0,0,1,.3-.3h1.582a.3.3,0,1,1-.018.595Zm32.719-.351a.3.3,0,0,1-.065-.595,14.175,14.175,0,0,0,2.76-.916.292.292,0,0,1,.393.149.3.3,0,0,1-.149.393,14.95,14.95,0,0,1-2.873.958Zm5.39-2.421a.3.3,0,0,1-.178-.535,14.981,14.981,0,0,0,2.183-1.927.3.3,0,0,1,.434.4,15.18,15.18,0,0,1-2.267,2.011.309.309,0,0,1-.214.054Zm4.01-4.337a.285.285,0,0,1-.155-.042.3.3,0,0,1-.1-.41A14.539,14.539,0,0,0,369.308,186a.292.292,0,0,1,.381-.178.3.3,0,0,1,.178.381,15.12,15.12,0,0,1-1.3,2.731.3.3,0,0,1-.3.143Zm1.993-5.562h-.048a.3.3,0,0,1-.25-.339,14.814,14.814,0,0,0,.143-2.052v-.869a.3.3,0,1,1,.595,0v.869a15.034,15.034,0,0,1-.149,2.136.3.3,0,0,1-.333.256Zm.143-5.949a.3.3,0,0,1-.3-.3v-2.974a.3.3,0,1,1,.595,0v2.974a.3.3,0,0,1-.339.309Zm0-5.949a.3.3,0,0,1-.3-.3v-2.975a.3.3,0,1,1,.595,0v2.975a.3.3,0,0,1-.339.309Zm0-5.949a.3.3,0,0,1-.3-.3V162.4a.3.3,0,1,1,.595,0v2.974a.3.3,0,0,1-.339.309Zm0-5.949a.3.3,0,0,1-.3-.3v-2.974a.3.3,0,1,1,.595,0v2.974a.3.3,0,0,1-.339.309Z" transform="translate(-319.253 -76.898)" fill="#263238"/>
      <path id="Path_5082" data-name="Path 5082" d="M322.235,216.72l-6.425,3.706,6.425,3.712Z" transform="translate(-315.81 -101.435)" fill="#263238"/>
    </g>
    <g id="freepik--Envelope--inject-2" transform="translate(233.476 50.603)">
      <rect id="Rectangle_845" data-name="Rectangle 845" width="53.898" height="38.585" transform="matrix(0.979, 0.202, -0.202, 0.979, 10.86, 3.865)" fill="#263238"/>
      <rect id="Rectangle_846" data-name="Rectangle 846" width="53.898" height="38.585" transform="matrix(0.979, 0.202, -0.202, 0.979, 8.127, 0.347)" fill="#ffc010"/>
      <path id="Path_5083" data-name="Path 5083" d="M403.514,119.3,350.14,108.315l.059-.292L358.04,69.95l53.374,10.976-.059.291Zm-52.672-11.446,52.208,10.744,7.686-37.2L358.5,70.646Z" transform="translate(-350.14 -69.95)" fill="#263238"/>
      <path id="Path_5084" data-name="Path 5084" d="M386.092,94.928a.309.309,0,0,1-.22-.1L363.367,70.5a.3.3,0,1,1,.434-.4l22.362,24.171,30.09-13.379a.3.3,0,0,1,.393.149.291.291,0,0,1-.149.393L386.211,94.9a.268.268,0,0,1-.119.024Z" transform="translate(-355.455 -69.96)" fill="#263238"/>
    </g>
  </g>
</svg>
